<svg width="16" height="17" viewBox="0 0 16 17" fill="none" xmlns="http://www.w3.org/2000/svg">
<g id="ep:arrow-left-bold">
<path id="Vector" d="M0.63556 5.79295C0.823088 5.60548 1.0774 5.50017 1.34256 5.50017C1.60772 5.50017 1.86203 5.60548 2.04956 5.79295L6.99956 10.743L11.9496 5.79295C12.1382 5.61079 12.3908 5.51 12.653 5.51228C12.9152 5.51456 13.166 5.61973 13.3514 5.80513C13.5368 5.99054 13.642 6.24135 13.6442 6.50355C13.6465 6.76575 13.5457 7.01835 13.3636 7.20695L7.70656 12.864C7.51903 13.0514 7.26472 13.1567 6.99956 13.1567C6.7344 13.1567 6.48009 13.0514 6.29256 12.864L0.63556 7.20695C0.448089 7.01942 0.342773 6.76512 0.342773 6.49995C0.342773 6.23479 0.448089 5.98048 0.63556 5.79295Z" fill="white"/>
</g>
</svg>
