<svg width="16" height="17" viewBox="0 0 16 17" fill="none" xmlns="http://www.w3.org/2000/svg">
<g id="ep:arrow-left-bold">
<path id="Vector" d="M1.63605 5.79295C1.82358 5.60548 2.07788 5.50017 2.34305 5.50017C2.60821 5.50017 2.86252 5.60548 3.05005 5.79295L8.00005 10.743L12.95 5.79295C13.1387 5.61079 13.3913 5.51 13.6535 5.51228C13.9156 5.51456 14.1665 5.61973 14.3519 5.80513C14.5373 5.99054 14.6424 6.24135 14.6447 6.50355C14.647 6.76575 14.5462 7.01835 14.364 7.20695L8.70705 12.864C8.51952 13.0514 8.26521 13.1567 8.00005 13.1567C7.73488 13.1567 7.48058 13.0514 7.29305 12.864L1.63605 7.20695C1.44858 7.01942 1.34326 6.76512 1.34326 6.49995C1.34326 6.23479 1.44858 5.98048 1.63605 5.79295Z" fill="white"/>
</g>
</svg>
