<svg width="12" height="12" viewBox="0 0 12 12" fill="none" xmlns="http://www.w3.org/2000/svg">
<path d="M3.96984 10.773C3.82923 10.6323 3.75025 10.4416 3.75025 10.2427C3.75025 10.0438 3.82923 9.85311 3.96984 9.71246L7.68234 5.99996L3.96984 2.28746C3.83322 2.14601 3.75762 1.95656 3.75933 1.75991C3.76104 1.56326 3.83992 1.37516 3.97897 1.2361C4.11803 1.09704 4.30614 1.01817 4.50279 1.01646C4.69943 1.01475 4.88888 1.09035 5.03034 1.22696L9.27309 5.46971C9.41369 5.61036 9.49268 5.80109 9.49268 5.99996C9.49268 6.19884 9.41369 6.38957 9.27309 6.53021L5.03034 10.773C4.88969 10.9136 4.69896 10.9926 4.50009 10.9926C4.30121 10.9926 4.11048 10.9136 3.96984 10.773Z" fill="#140A0A"/>
</svg>
