<svg width="16" height="17" viewBox="0 0 16 17" fill="none" xmlns="http://www.w3.org/2000/svg">
<g id="ep:arrow-left-bold">
<path id="Vector" d="M14.364 11.207C14.1764 11.3945 13.9221 11.4998 13.657 11.4998C13.3918 11.4998 13.1375 11.3945 12.95 11.207L7.99995 6.25705L3.04995 11.207C2.86135 11.3892 2.60875 11.49 2.34655 11.4877C2.08435 11.4854 1.83354 11.3803 1.64813 11.1949C1.46272 11.0095 1.35756 10.7586 1.35528 10.4964C1.353 10.2343 1.45379 9.98165 1.63595 9.79305L7.29295 4.13605C7.48048 3.94858 7.73479 3.84326 7.99995 3.84326C8.26512 3.84326 8.51942 3.94858 8.70695 4.13605L14.364 9.79305C14.5514 9.98058 14.6567 10.2349 14.6567 10.5C14.6567 10.7652 14.5514 11.0195 14.364 11.207Z" fill="#E22B2B"/>
</g>
</svg>
