<svg width="12" height="12" viewBox="0 0 12 12" fill="none" xmlns="http://www.w3.org/2000/svg">
<g id="ep:arrow-left-bold">
<path id="Vector" d="M3.96935 10.773C3.82874 10.6323 3.74976 10.4416 3.74976 10.2427C3.74976 10.0438 3.82874 9.85311 3.96935 9.71246L7.68185 5.99996L3.96935 2.28746C3.83273 2.14601 3.75713 1.95656 3.75884 1.75991C3.76055 1.56326 3.83943 1.37516 3.97848 1.2361C4.11754 1.09704 4.30565 1.01817 4.5023 1.01646C4.69894 1.01475 4.8884 1.09035 5.02985 1.22696L9.2726 5.46971C9.4132 5.61036 9.49219 5.80109 9.49219 5.99996C9.49219 6.19884 9.4132 6.38957 9.2726 6.53021L5.02985 10.773C4.8892 10.9136 4.69847 10.9926 4.4996 10.9926C4.30072 10.9926 4.10999 10.9136 3.96935 10.773Z" fill="#3C3A3A"/>
</g>
</svg>
