<svg width="64" height="64" viewBox="0 0 64 64" fill="none" xmlns="http://www.w3.org/2000/svg">
<path fill-rule="evenodd" clip-rule="evenodd" d="M58.6666 32.0002C58.6666 17.2722 46.7279 5.3335 31.9999 5.3335C17.2719 5.3335 5.33325 17.2722 5.33325 32.0002C5.33325 46.7282 17.2719 58.6668 31.9999 58.6668C46.7279 58.6668 58.6666 46.7282 58.6666 32.0002ZM22.5866 30.7468C22.212 30.3718 22.0017 29.8635 22.0017 29.3335C22.0017 28.8035 22.212 28.2952 22.5866 27.9202L30.5866 19.9202C30.9616 19.5456 31.4699 19.3353 31.9999 19.3353C32.5299 19.3353 33.0382 19.5456 33.4132 19.9202L41.4132 27.9202C41.6097 28.1033 41.7674 28.3241 41.8767 28.5694C41.986 28.8147 42.0448 29.0796 42.0495 29.3481C42.0542 29.6166 42.0048 29.8834 41.9042 30.1324C41.8037 30.3815 41.6539 30.6077 41.464 30.7976C41.2741 30.9875 41.0479 31.1372 40.7988 31.2378C40.5498 31.3384 40.2831 31.3878 40.0145 31.3831C39.746 31.3783 39.4811 31.3196 39.2358 31.2102C38.9905 31.1009 38.7697 30.9433 38.5866 30.7468L33.9999 26.1602V42.6668C33.9999 43.1973 33.7892 43.706 33.4141 44.081C33.0391 44.4561 32.5303 44.6668 31.9999 44.6668C31.4695 44.6668 30.9608 44.4561 30.5857 44.081C30.2106 43.706 29.9999 43.1973 29.9999 42.6668V26.1602L25.4132 30.7468C25.0382 31.1214 24.5299 31.3317 23.9999 31.3317C23.4699 31.3317 22.9616 31.1214 22.5866 30.7468Z" fill="#140A0A"/>
</svg>
