<svg width="36" height="36" viewBox="0 0 36 36" fill="none" xmlns="http://www.w3.org/2000/svg">
<path d="M4.5 6.375C4.5 6.07663 4.61853 5.79048 4.8295 5.5795C5.04048 5.36853 5.32663 5.25 5.625 5.25H6.462C7.887 5.25 8.742 6.2085 9.2295 7.0995C9.555 7.6935 9.7905 8.382 9.975 9.006C10.0249 9.00206 10.0749 9.00006 10.125 9H28.872C30.117 9 31.017 10.191 30.675 11.3895L27.933 21.003C27.6872 21.8653 27.167 22.624 26.4514 23.1642C25.7358 23.7044 24.8636 23.9968 23.967 23.997H15.045C14.1412 23.997 13.2625 23.7003 12.5438 23.1523C11.8251 22.6043 11.3062 21.8355 11.067 20.964L9.927 16.806L8.037 10.434L8.0355 10.422C7.8015 9.5715 7.5825 8.775 7.2555 8.181C6.942 7.6035 6.69 7.5 6.4635 7.5H5.625C5.32663 7.5 5.04048 7.38147 4.8295 7.1705C4.61853 6.95952 4.5 6.67337 4.5 6.375ZM14.25 31.5C15.0456 31.5 15.8087 31.1839 16.3713 30.6213C16.9339 30.0587 17.25 29.2956 17.25 28.5C17.25 27.7044 16.9339 26.9413 16.3713 26.3787C15.8087 25.8161 15.0456 25.5 14.25 25.5C13.4544 25.5 12.6913 25.8161 12.1287 26.3787C11.5661 26.9413 11.25 27.7044 11.25 28.5C11.25 29.2956 11.5661 30.0587 12.1287 30.6213C12.6913 31.1839 13.4544 31.5 14.25 31.5ZM24.75 31.5C25.5456 31.5 26.3087 31.1839 26.8713 30.6213C27.4339 30.0587 27.75 29.2956 27.75 28.5C27.75 27.7044 27.4339 26.9413 26.8713 26.3787C26.3087 25.8161 25.5456 25.5 24.75 25.5C23.9544 25.5 23.1913 25.8161 22.6287 26.3787C22.0661 26.9413 21.75 27.7044 21.75 28.5C21.75 29.2956 22.0661 30.0587 22.6287 30.6213C23.1913 31.1839 23.9544 31.5 24.75 31.5Z" fill="#E22B2B"/>
</svg>
