<svg width="12" height="12" viewBox="0 0 12 12" fill="none" xmlns="http://www.w3.org/2000/svg">
<path d="M1.22012 3.22944C1.3611 3.08253 1.55229 3 1.75163 3C1.95098 3 2.14217 3.08253 2.28315 3.22944L6.00454 7.10846L9.72592 3.22944C9.86771 3.08669 10.0576 3.00771 10.2547 3.00949C10.4519 3.01128 10.6404 3.09369 10.7798 3.23899C10.9192 3.38428 10.9983 3.58083 11 3.78629C11.0017 3.99176 10.9259 4.18971 10.789 4.33751L6.53606 8.77056C6.39508 8.91747 6.20389 9 6.00454 9C5.80519 9 5.614 8.91747 5.47302 8.77056L1.22012 4.33751C1.07918 4.19055 1 3.99127 1 3.78347C1 3.57568 1.07918 3.37639 1.22012 3.22944Z" fill="#140A0A"/>
</svg>
