<svg width="12" height="12" viewBox="0 0 12 12" fill="none" xmlns="http://www.w3.org/2000/svg">
<path d="M1.22012 8.77056C1.3611 8.91747 1.55229 9 1.75163 9C1.95098 9 2.14217 8.91747 2.28315 8.77056L6.00454 4.89154L9.72592 8.77056C9.86771 8.91331 10.0576 8.99229 10.2547 8.99051C10.4519 8.98872 10.6404 8.90631 10.7798 8.76101C10.9192 8.61572 10.9983 8.41917 11 8.21371C11.0017 8.00824 10.9259 7.81029 10.789 7.66249L6.53606 3.22944C6.39508 3.08253 6.20389 3 6.00454 3C5.80519 3 5.614 3.08253 5.47302 3.22944L1.22012 7.66249C1.07918 7.80945 1 8.00873 1 8.21653C1 8.42432 1.07918 8.62361 1.22012 8.77056Z" fill="#140A0A"/>
</svg>
