<svg width="81" height="80" viewBox="0 0 81 80" fill="none" xmlns="http://www.w3.org/2000/svg">
<path d="M73.4688 7.06252C72.821 6.40727 72.0493 5.88745 71.1987 5.53336C70.3481 5.17926 69.4355 4.99796 68.5141 5.00002H49.3063C48.0463 5.00237 46.8381 5.50149 45.9438 6.38908L7.54536 44.7797C6.23512 46.0926 5.49927 47.8717 5.49927 49.7266C5.49927 51.5814 6.23512 53.3605 7.54536 54.6735L25.8266 72.9547C27.1399 74.2655 28.9196 75.0017 30.775 75.0017C32.6305 75.0017 34.4102 74.2655 35.7235 72.9547L74.1063 34.5797C74.9957 33.6868 75.4965 32.479 75.5 31.2188V12C75.5057 11.0834 75.3291 10.1749 74.9804 9.32724C74.6316 8.47959 74.1178 7.70975 73.4688 7.06252ZM60.5 25C59.5111 25 58.5444 24.7068 57.7222 24.1574C56.8999 23.608 56.2591 22.8271 55.8806 21.9134C55.5022 20.9998 55.4032 19.9945 55.5961 19.0246C55.789 18.0547 56.2653 17.1637 56.9645 16.4645C57.6638 15.7652 58.5547 15.289 59.5246 15.0961C60.4945 14.9032 61.4998 15.0022 62.4135 15.3806C63.3271 15.7591 64.108 16.3999 64.6574 17.2222C65.2068 18.0444 65.5 19.0111 65.5 20C65.5 21.3261 64.9733 22.5979 64.0356 23.5355C63.0979 24.4732 61.8261 25 60.5 25Z" fill="#E22B2B"/>
</svg>
