<svg width="81" height="80" viewBox="0 0 81 80" fill="none" xmlns="http://www.w3.org/2000/svg">
<path fill-rule="evenodd" clip-rule="evenodd" d="M7.16659 6.6665C6.28253 6.6665 5.43468 7.01769 4.80956 7.64281C4.18444 8.26794 3.83325 9.11578 3.83325 9.99984V56.6665C3.83325 61.1798 6.82325 64.9932 10.9299 66.2398C11.5413 68.2565 12.7741 70.0285 14.4523 71.3029C16.1306 72.5773 18.1686 73.2889 20.2754 73.3362C22.3821 73.3835 24.45 72.7641 26.1838 71.5663C27.9176 70.3686 29.2287 68.6537 29.9299 66.6665H51.0666C51.7678 68.6537 53.0789 70.3686 54.8127 71.5663C56.5465 72.7641 58.6144 73.3835 60.7212 73.3362C62.8279 73.2889 64.8659 72.5773 66.5442 71.3029C68.2225 70.0285 69.4552 68.2565 70.0666 66.2398C72.1205 65.6169 73.9195 64.3499 75.198 62.626C76.4765 60.9021 77.1667 58.8128 77.1666 56.6665V43.3332C77.1666 41.1445 76.7355 38.9772 75.8979 36.9551C75.0603 34.933 73.8327 33.0957 72.285 31.5481C70.7374 30.0004 68.9001 28.7728 66.878 27.9352C64.8559 27.0976 62.6886 26.6665 60.4999 26.6665H47.1666V9.99984C47.1666 9.11578 46.8154 8.26794 46.1903 7.64281C45.5652 7.01769 44.7173 6.6665 43.8333 6.6665H7.16659ZM51.0699 59.9998H47.1666V33.3332H60.4999C63.1521 33.3332 65.6956 34.3867 67.571 36.2621C69.4464 38.1375 70.4999 40.681 70.4999 43.3332V56.6665C70.5004 57.1043 70.4143 57.5378 70.2467 57.9423C70.0791 58.3467 69.8333 58.714 69.5233 59.0232C68.6711 57.238 67.3086 55.7456 65.6081 54.7349C63.9076 53.7242 61.9456 53.2405 59.9702 53.3451C57.9948 53.4496 56.0948 54.1377 54.5105 55.3223C52.9263 56.5068 51.7289 58.1347 51.0699 59.9998ZM18.1433 60.9765C18.4507 60.6581 18.8186 60.4042 19.2252 60.2295C19.6319 60.0548 20.0693 59.9628 20.5119 59.959C20.9545 59.9552 21.3934 60.0395 21.8031 60.2071C22.2128 60.3747 22.5849 60.6222 22.8979 60.9352C23.2109 61.2482 23.4584 61.6203 23.626 62.03C23.7936 62.4397 23.8779 62.8786 23.8741 63.3212C23.8702 63.7638 23.7783 64.2012 23.6036 64.6079C23.4289 65.0145 23.175 65.3824 22.8566 65.6898C22.2279 66.297 21.3859 66.633 20.5119 66.6254C19.6379 66.6178 18.8019 66.2673 18.1839 65.6492C17.5658 65.0312 17.2153 64.1952 17.2077 63.3212C17.2001 62.4472 17.5361 61.6052 18.1433 60.9765ZM57.1666 63.3332C57.1666 62.4491 57.5178 61.6013 58.1429 60.9761C58.768 60.351 59.6159 59.9998 60.4999 59.9998C61.384 59.9998 62.2318 60.351 62.8569 60.9761C63.4821 61.6013 63.8333 62.4491 63.8333 63.3332C63.8333 64.2172 63.4821 65.0651 62.8569 65.6902C62.2318 66.3153 61.384 66.6665 60.4999 66.6665C59.6159 66.6665 58.768 66.3153 58.1429 65.6902C57.5178 65.0651 57.1666 64.2172 57.1666 63.3332Z" fill="#E22B2B"/>
</svg>
