<svg width="81" height="80" viewBox="0 0 81 80" fill="none" xmlns="http://www.w3.org/2000/svg">
<path d="M30.6999 6.43324C24.3999 6.39991 18.2666 12.4666 21.0666 19.9999H10.4999C8.73181 19.9999 7.03612 20.7023 5.78587 21.9525C4.53563 23.2028 3.83325 24.8985 3.83325 26.6666V33.3332C3.83325 34.2173 4.18444 35.0651 4.80956 35.6903C5.43468 36.3154 6.28253 36.6666 7.16659 36.6666H37.1666V26.6666H43.8333V36.6666H73.8333C74.7173 36.6666 75.5652 36.3154 76.1903 35.6903C76.8154 35.0651 77.1666 34.2173 77.1666 33.3332V26.6666C77.1666 24.8985 76.4642 23.2028 75.214 21.9525C73.9637 20.7023 72.268 19.9999 70.4999 19.9999H59.9333C63.8333 9.09991 49.1666 1.39991 42.3999 10.7999L40.4999 13.3332L38.5999 10.7332C36.4999 7.76658 33.5999 6.46658 30.6999 6.43324ZM30.4999 13.3332C33.4666 13.3332 34.9666 16.9332 32.8666 19.0332C30.7666 21.1332 27.1666 19.6332 27.1666 16.6666C27.1666 15.7825 27.5178 14.9347 28.1429 14.3096C28.768 13.6844 29.6159 13.3332 30.4999 13.3332ZM50.4999 13.3332C53.4666 13.3332 54.9666 16.9332 52.8666 19.0332C50.7666 21.1332 47.1666 19.6332 47.1666 16.6666C47.1666 15.7825 47.5178 14.9347 48.1429 14.3096C48.768 13.6844 49.6159 13.3332 50.4999 13.3332ZM7.16659 39.9999V66.6666C7.16659 68.4347 7.86896 70.1304 9.11921 71.3806C10.3694 72.6309 12.0651 73.3332 13.8333 73.3332H67.1666C68.9347 73.3332 70.6304 72.6309 71.8806 71.3806C73.1309 70.1304 73.8333 68.4347 73.8333 66.6666V39.9999H43.8333V66.6666H37.1666V39.9999H7.16659Z" fill="#E22B2B"/>
</svg>
