<svg width="28" height="28" viewBox="0 0 28 28" fill="none" xmlns="http://www.w3.org/2000/svg">
<path d="M19.0016 16.8024L22.0623 19.863C22.4708 20.2715 22.4773 20.9273 22.0694 21.3352L21.3346 22.0701C20.93 22.4746 20.271 22.4715 19.8624 22.0629L16.8017 19.0023C15.6722 19.7269 14.3288 20.1471 12.8872 20.1471C8.87801 20.1471 5.62793 16.897 5.62793 12.8878C5.62793 8.87865 8.87801 5.62857 12.8872 5.62857C16.8964 5.62857 20.1464 8.87865 20.1464 12.8878C20.1464 14.3294 19.7262 15.6729 19.0016 16.8024ZM12.8872 18.073C15.7509 18.073 18.0724 15.7515 18.0724 12.8878C18.0724 10.0241 15.7509 7.70264 12.8872 7.70264C10.0235 7.70264 7.702 10.0241 7.702 12.8878C7.702 15.7515 10.0235 18.073 12.8872 18.073Z" fill="white"/>
</svg>
