<svg width="81" height="80" viewBox="0 0 81 80" fill="none" xmlns="http://www.w3.org/2000/svg">
<path d="M73.8334 56.6732C73.8319 61.2317 72.2738 65.653 69.4168 69.2052C66.5599 72.7575 62.5756 75.2275 58.1234 76.2065L55.9967 69.8265C57.9442 69.5058 59.7962 68.757 61.4194 67.6341C63.0426 66.5113 64.3964 65.0424 65.3834 63.3332H57.1667C55.3986 63.3332 53.7029 62.6308 52.4527 61.3806C51.2025 60.1303 50.5001 58.4346 50.5001 56.6665V43.3332C50.5001 41.5651 51.2025 39.8694 52.4527 38.6191C53.7029 37.3689 55.3986 36.6665 57.1667 36.6665H66.9601C66.1466 30.2228 63.0098 24.2974 58.1382 20.0021C53.2665 15.7068 46.9949 13.3368 40.5001 13.3368C34.0053 13.3368 27.7336 15.7068 22.862 20.0021C17.9903 24.2974 14.8535 30.2228 14.0401 36.6665H23.8334C25.6015 36.6665 27.2972 37.3689 28.5475 38.6191C29.7977 39.8694 30.5001 41.5651 30.5001 43.3332V56.6665C30.5001 58.4346 29.7977 60.1303 28.5475 61.3806C27.2972 62.6308 25.6015 63.3332 23.8334 63.3332H13.8334C12.0653 63.3332 10.3696 62.6308 9.11937 61.3806C7.86913 60.1303 7.16675 58.4346 7.16675 56.6665V39.9998C7.16675 21.5898 22.0901 6.6665 40.5001 6.6665C58.9101 6.6665 73.8334 21.5898 73.8334 39.9998V56.6732Z" fill="#E22B2B"/>
</svg>
