<svg width="36" height="36" viewBox="0 0 36 36" fill="none" xmlns="http://www.w3.org/2000/svg">
<path d="M29.5199 16.2H6.4799C5.4863 16.2 5.3999 17.0046 5.3999 18C5.3999 18.9954 5.4863 19.8 6.4799 19.8H29.5199C30.5135 19.8 30.5999 18.9954 30.5999 18C30.5999 17.0046 30.5135 16.2 29.5199 16.2ZM29.5199 23.4H6.4799C5.4863 23.4 5.3999 24.2046 5.3999 25.2C5.3999 26.1954 5.4863 27 6.4799 27H29.5199C30.5135 27 30.5999 26.1954 30.5999 25.2C30.5999 24.2046 30.5135 23.4 29.5199 23.4ZM6.4799 12.6H29.5199C30.5135 12.6 30.5999 11.7954 30.5999 10.8C30.5999 9.8046 30.5135 9 29.5199 9H6.4799C5.4863 9 5.3999 9.8046 5.3999 10.8C5.3999 11.7954 5.4863 12.6 6.4799 12.6Z" fill="#E22B2B"/>
</svg>
