<svg width="28" height="28" viewBox="0 0 28 28" fill="none" xmlns="http://www.w3.org/2000/svg">
<path d="M22.9602 12.6H5.0402C4.2674 12.6 4.2002 13.2258 4.2002 14C4.2002 14.7742 4.2674 15.4 5.0402 15.4H22.9602C23.733 15.4 23.8002 14.7742 23.8002 14C23.8002 13.2258 23.733 12.6 22.9602 12.6ZM22.9602 18.2H5.0402C4.2674 18.2 4.2002 18.8258 4.2002 19.6C4.2002 20.3742 4.2674 21 5.0402 21H22.9602C23.733 21 23.8002 20.3742 23.8002 19.6C23.8002 18.8258 23.733 18.2 22.9602 18.2ZM5.0402 9.8H22.9602C23.733 9.8 23.8002 9.1742 23.8002 8.4C23.8002 7.6258 23.733 7 22.9602 7H5.0402C4.2674 7 4.2002 7.6258 4.2002 8.4C4.2002 9.1742 4.2674 9.8 5.0402 9.8Z" fill="#E22B2B"/>
</svg>
