<svg width="36" height="36" viewBox="0 0 36 36" fill="none" xmlns="http://www.w3.org/2000/svg">
<path d="M32.6081 24.6206C32.3574 26.5261 31.4216 28.2752 29.9755 29.5412C28.5294 30.8072 26.6719 31.5035 24.75 31.5C13.5844 31.5 4.50001 22.4156 4.50001 11.25C4.49657 9.32807 5.19285 7.4706 6.45882 6.02451C7.7248 4.57843 9.47388 3.64262 11.3794 3.39188C11.8612 3.33304 12.3492 3.43162 12.7704 3.6729C13.1917 3.91418 13.5236 4.28522 13.7166 4.73063L16.6866 11.3611V11.378C16.8344 11.7189 16.8954 12.0912 16.8642 12.4615C16.8331 12.8317 16.7107 13.1886 16.508 13.5C16.4827 13.538 16.4559 13.5731 16.4278 13.6083L13.5 17.0789C14.5533 19.2192 16.792 21.4383 18.9605 22.4944L22.3833 19.582C22.4169 19.5538 22.4521 19.5275 22.4888 19.5033C22.8 19.2957 23.158 19.169 23.5305 19.1347C23.9029 19.1003 24.2781 19.1593 24.622 19.3064L24.6403 19.3149L31.2652 22.2834C31.7114 22.4758 32.0833 22.8074 32.3254 23.2287C32.5675 23.65 32.6667 24.1383 32.6081 24.6206Z" fill="#E22B2B"/>
</svg>
