<svg width="36" height="36" viewBox="0 0 36 36" fill="none" xmlns="http://www.w3.org/2000/svg">
<path fill-rule="evenodd" clip-rule="evenodd" d="M11.1667 10.5833C11.1667 9.16885 11.7286 7.81229 12.7288 6.8121C13.729 5.8119 15.0855 5.25 16.5 5.25C17.9145 5.25 19.271 5.8119 20.2712 6.8121C21.2714 7.81229 21.8333 9.16885 21.8333 10.5833C21.8333 11.9978 21.2714 13.3544 20.2712 14.3546C19.271 15.3548 17.9145 15.9167 16.5 15.9167C15.0855 15.9167 13.729 15.3548 12.7288 14.3546C11.7286 13.3544 11.1667 11.9978 11.1667 10.5833ZM11.1667 18.5833C9.39856 18.5833 7.70286 19.2857 6.45262 20.536C5.20238 21.7862 4.5 23.4819 4.5 25.25C4.5 26.3109 4.92143 27.3283 5.67157 28.0784C6.42172 28.8286 7.43913 29.25 8.5 29.25H24.5C25.5609 29.25 26.5783 28.8286 27.3284 28.0784C28.0786 27.3283 28.5 26.3109 28.5 25.25C28.5 23.4819 27.7976 21.7862 26.5474 20.536C25.2971 19.2857 23.6014 18.5833 21.8333 18.5833H11.1667Z" fill="#E22B2B"/>
</svg>
