<svg width="48" height="48" viewBox="0 0 48 48" fill="none" xmlns="http://www.w3.org/2000/svg">
<path d="M24.8577 30.7202L24.4288 31.6236L24.8577 30.7202C24.3149 30.4625 23.6851 30.4625 23.1423 30.7202L23.5712 31.6236L23.1423 30.7202L16.9986 33.6365L17.8738 26.8923C17.9511 26.2965 17.7564 25.6975 17.3437 25.261L12.6716 20.3192L19.3561 19.0674C19.9466 18.9568 20.4562 18.5866 20.7438 18.0591L24 12.0886L27.2562 18.0591C27.5438 18.5866 28.0534 18.9568 28.6439 19.0674L35.3284 20.3192L30.6563 25.261C30.2435 25.6975 30.0489 26.2965 30.1262 26.8923L31.0014 33.6365L24.8577 30.7202Z" stroke="#140A0A" stroke-width="2"/>
</svg>
