<svg width="26" height="24" viewBox="0 0 26 24" fill="none" xmlns="http://www.w3.org/2000/svg">
<path d="M13.8577 19.7202L13.4288 20.6236L13.8577 19.7202C13.3149 19.4625 12.6851 19.4625 12.1423 19.7202L12.5712 20.6236L12.1423 19.7202L5.99864 22.6365L6.87376 15.8923C6.95107 15.2965 6.75645 14.6975 6.3437 14.261L1.67157 9.31917L8.35612 8.06738C8.94665 7.9568 9.45618 7.5866 9.74384 7.05914L13 1.08858L16.2562 7.05914C16.5438 7.5866 17.0534 7.9568 17.6439 8.06738L24.3284 9.31917L19.6563 14.261C19.2435 14.6975 19.0489 15.2965 19.1262 15.8923L20.0014 22.6365L13.8577 19.7202Z" stroke="#CCC7C7" stroke-width="2"/>
</svg>
